<svg id="Layer_2" data-name="Layer 2" xmlns="http://www.w3.org/2000/svg" xmlns:xlink="http://www.w3.org/1999/xlink" viewBox="0 0 590.58 830"><defs><style>.cls-1{fill:none;}.cls-2{clip-path:url(#clip-path);}.cls-3{fill:#ffbaf5;}.cls-4{fill:#f7d1b5;}.cls-5{fill:#efc6ab;}.cls-6{fill:#0f0e0d;}.cls-7{fill:#c6c6c6;}</style><clipPath id="clip-path" transform="translate(-229.66 -88)"><rect class="cls-1" x="229.66" y="88" width="128.33" height="128.33"/></clipPath></defs><title>jlin</title><g id="disc"><g class="cls-2"><g class="cls-2"><path class="cls-3" d="M325.83,96.54a63.88,63.88,0,0,0-32-8.54h0a64.17,64.17,0,1,0,0,128.33h0a64.17,64.17,0,0,0,32-119.79m0,107.77a60.9,60.9,0,0,1-31.78,8.9h-.22a61.17,61.17,0,0,1,0-122.33h.22a61.17,61.17,0,0,1,31.78,113.43" transform="translate(-229.66 -88)"/><path d="M325.83,99.77a60.9,60.9,0,0,0-31.78-8.89h-.22a61.17,61.17,0,0,0,0,122.33h.22A61.18,61.18,0,0,0,325.83,99.77m-32,66.27h0a13.88,13.88,0,0,1,0-27.76h0a14.33,14.33,0,0,1,13.88,13.88A13.87,13.87,0,0,1,293.83,166" transform="translate(-229.66 -88)"/><path class="cls-3" d="M293.83,138.28h0a13.88,13.88,0,0,0,0,27.76h0a13.87,13.87,0,0,0,13.88-13.88,14.33,14.33,0,0,0-13.88-13.88m0,26.92h0a13,13,0,1,1,0-26.07h0a13,13,0,0,1,0,26.07" transform="translate(-229.66 -88)"/><path d="M293.83,139.13h0a13,13,0,1,0,0,26.07h0a13,13,0,0,0,0-26.07m0,25.14h0a12.11,12.11,0,1,1,0-24.21h0a12.11,12.11,0,0,1,0,24.21" transform="translate(-229.66 -88)"/><path class="cls-3" d="M293.83,140.06h0a12.11,12.11,0,1,0,0,24.21h0a12.11,12.11,0,0,0,0-24.21m0,21.41h0a9.31,9.31,0,0,1,0-18.61h0a9.31,9.31,0,0,1,0,18.61" transform="translate(-229.66 -88)"/><path d="M293.83,142.86h0a9.31,9.31,0,0,0,0,18.61h0a9.31,9.31,0,0,0,0-18.61m0,17.38a8.08,8.08,0,1,1,8.07-8.08,8.07,8.07,0,0,1-8.07,8.08" transform="translate(-229.66 -88)"/></g></g></g><g id="headshoulders"><polygon points="350.67 79.33 350.67 58.83 351.67 51.5 354.33 43.83 360 35.83 366.33 26.67 376.83 18 382.67 13.5 389.5 10.17 396.67 8.67 404.33 10.67 411.5 11.33 418.67 15.83 425.33 24.67 429.33 32.17 432 39 433.83 45.83 434.33 51.67 434.08 56.67 358.83 82.83 350.67 79.33"/><polygon class="cls-4" points="356.67 180 363.67 145.33 362.83 133.5 361.17 124.17 359.33 114.83 358.17 108.33 356.67 104.33 355.5 104.17 354.17 104.83 351.67 105.17 349.33 105.17 347.17 103.5 345.67 100.67 344.83 97.33 344.33 93 344.33 86 345.33 82.17 346.83 80.33 349.17 79.33 351.5 79.33 353.5 79.5 356.33 80.5 358.17 81.5 358.83 66.67 360.5 57.67 362.67 52.33 366.5 45.67 371.33 38.33 379.5 33 384.33 31.88 390.46 31 396.83 31 402 31.83 408 33.17 412 34.67 417.17 36.5 423 40.33 427 44.33 431 47.83 433.5 51.33 434.08 56.67 434.25 62.58 434.33 67.5 434.17 74.58 434 80.17 433.67 86.75 433.58 88.83 435.08 88.67 436.83 88.83 438.25 89.5 439.75 92.25 440 96.17 440.08 99.17 439.92 102.58 439 105.83 437.58 108.33 436.25 109.25 434.17 108.92 433.25 107.83 431.83 109.92 430.25 114.5 428.58 118.67 427.5 120.75 425.92 124.25 424.08 127.92 423.25 129.75 422.71 134.13 422.21 139.13 421.83 143.13 420.83 147.5 419.83 153.75 423.21 156.5 390.83 190.25 368.33 198.75 356.67 180"/><polygon class="cls-4" points="321.08 186.25 301.83 187.25 293.58 188.75 285.33 191.75 277.33 195.75 270.58 200.5 263.58 205.75 258.33 209.75 242.58 211 234.33 212.5 224.83 215 216.08 218.25 208.58 221.75 203.58 224.75 198.33 229 194.33 231.5 178.33 231.25 168.08 221 158.08 213.75 150.33 208.5 141.08 201.75 128.58 193.5 116.83 185.75 105.08 177.25 94.58 168.75 81.83 157.25 72.83 146.5 69.58 142.5 63.83 136.75 60.08 134.5 55.83 131 51.33 125.75 48.83 123.25 47.08 116.5 47.33 107.25 47.83 102.75 48.83 99.25 49.33 96.17 49.42 93.08 48.25 91.33 45.83 89.83 43.58 89.75 42 90.42 40.08 94 38.92 97.42 38.17 101.75 36.71 109.38 36.21 113.88 36.21 117.5 35.71 121.5 33.71 118 33.21 111 32.67 105.75 31.42 101.08 29.83 95.58 29.17 91.83 28.67 87.83 28.58 84.25 28.58 82.17 27.67 80.83 26.08 79.83 24 79.33 21.42 79.83 19.67 81.92 18.42 85 17.83 89.06 17.33 93.69 17.46 97.31 17.33 101.06 17.71 104.69 18.33 109.44 16.21 101.94 14.83 97.69 13.46 94.31 12.71 90.19 12.21 86.81 11.96 83.81 12.33 80.19 11.83 78.06 9.83 77.44 6.96 77.31 4.33 78.06 3.08 81.81 2.21 85.44 2.21 88.94 2.58 93.81 3.21 100.31 4.33 106.81 6.58 114.44 11.08 120.19 15.83 127.19 16.71 131.81 18.96 137.31 24.08 143.94 30.96 150.56 38.83 156.75 44.5 160.25 50 165.25 53.83 171.58 58.83 178.42 67.33 186.25 76.5 193.92 84.67 202.08 93 211.25 101.5 221.58 107.67 228.92 117.67 238.75 129.83 248.75 140 256.25 151.67 265.5 161 271.5 168.67 277.17 173.33 279.5 182.33 280.17 189.67 279.5 202 277.5 224.33 276.83 242.67 277.17 255.67 277.42 266.67 277.58 272.67 276.75 278.5 273.25 286.83 270.25 295.5 268.58 301.08 221.88 321.08 186.25"/><polygon class="cls-5" points="503.08 249.75 504.33 245.75 506.33 239 507.58 231.25 507.83 225.5 502.33 210.17 479.67 187.83 468.83 187.5 463.08 189 461.58 190.75 458.83 194.5 457.33 199 456.58 205.5 465.08 224.25 480.83 238 498.33 250.5 503.08 249.75"/><polygon class="cls-4" points="531.67 285.33 527 290.33 520.67 296 515.67 299 513 302.33 514 307.67 516.67 310.33 522 310.67 527.33 309.67 533 306 537.67 303.33 542.67 301.67 550.33 299.5 554.58 296 558.58 293.25 560.83 290.5 563.58 291.5 567.08 291 569.83 290.25 572.08 287.25 573.08 285 573.33 283.25 576.08 282.25 580.08 279 582.33 275.75 586.33 272 588.08 263.5 588.67 256 590.58 244.5 586.08 227.5 581.58 219 574.08 208 567.08 203 558.58 196.5 549.08 191 540.58 187.5 534.58 185.5 528.58 179 525.58 173.5 519.58 166 513.08 159 505.08 154.5 489.58 149.5 477.58 148 464.58 150.5 454.58 151.5 450.46 153.54 447.46 158.25 446.71 168.5 448.33 188.33 453 202 458.67 211 460.33 211.83 461.83 204.17 462.33 200 463.5 195.67 465.33 192.33 467.5 190 470 190 476.17 200.67 481.5 207 487.67 214 498.33 220 505.33 223.67 509.67 230.33 519.67 239.67 531.33 246.67 538.33 251 544.33 254.33 546 257.67 545 262.67 540.67 265.33 536.67 270.33 535.67 273.67 534 278.67 533.33 283 531.67 285.33"/></g><g id="jersey"><polygon points="293.27 362.91 288.67 371 287 382 286.67 390.67 314.67 391.67 337.67 395 365 400 408 414.67 424.67 419.33 439.67 420.33 450.33 421 460.33 424.33 472 427.33 478 425.33 481 422.67 484 420 485 416 485.83 413.75 489.83 410.25 492.83 402.75 496.58 389.5 495.33 373 491.33 359.25 490.08 357 485.83 351.5 485.17 346 487.5 340.5 489 332.83 491 323.17 493.17 310.33 494.33 302 496.17 291.83 498 280.33 500.5 270.17 503 259.17 503.67 253.33 502.58 251.75 497.58 251.25 473.08 234.25 458.08 211.75 447.33 183.75 448.17 153.75 445.17 153.42 440.25 153.25 435.58 152.92 431.17 152.92 426.08 153.13 423.58 153.5 421.58 154.5 415.08 161.25 407.33 167.5 397.08 168.75 389.33 174.75 382.08 186.5 372.33 192.5 358.17 184.67 347.92 179.75 344.83 179.83 340.17 180.33 336.83 182 331.5 184.5 328 185.67 321.83 185.88 319.71 186.44 312.58 191.75 301.08 207.75 298.58 226.25 300.08 248.75 296.58 263.25 297.58 283.25 302.58 306.25 306.08 324.25 308.83 332.13 308.08 337.75 307.08 346.25 306.58 354.25 302.08 356.75 297.27 359.59 293.27 362.91"/><polygon class="cls-3" points="315.67 186.5 310.67 190.83 305.33 195.83 299.33 205.17 297 212.17 296.67 225.83 297.33 240.17 297 251.5 294.33 259.83 294.08 271.63 295.58 281.38 299.08 296.38 303.83 312.75 304.71 316.56 304.58 306.38 301.58 294.38 298.83 284.38 298.08 276.38 298.08 265.13 298.83 257.38 300.58 252.13 301.58 246.13 301.33 235.38 300.83 226.38 301.08 215.38 303.33 208.38 306.58 203.13 312.33 194.88 317.83 189.63 321.83 185.88 315.67 186.5"/><polygon class="cls-3" points="348.83 179.5 351.58 178.5 356.83 178.5 360.58 182.25 365.08 186 367.83 187.5 370.08 188.75 371.83 189.5 374.58 189.25 377.08 187.5 380.08 185.75 382.08 182 385.33 177.25 387.33 174 392.33 169.75 396.33 167.75 400.83 167.25 404.83 167 409.58 164 413.58 160 417.33 157.25 419.83 153.75 423.58 153.5 422.33 156 417.83 159.5 414.33 163.25 410.58 166.75 406.08 168.75 401.08 169.25 396.33 170 393.33 172.25 391.08 175.25 388.58 178 385.83 182 384.08 185.25 381.58 188.5 378.58 190.25 376 191.67 374.92 193.17 374.25 194.83 374.08 195.5 374.08 196 369.75 196 369.75 195.42 369.42 194.75 368.83 193.33 367.83 191.83 364.58 190.25 360.75 187.75 356.83 184.83 352.58 182.33 350.33 181.25 347.92 179.75 348.83 179.5"/><polygon class="cls-3" points="450.46 153.54 449.33 157.5 448.83 162.75 448.58 169.75 449.08 178.25 451.08 189.5 455.58 199.75 458.33 208 461.58 214 466.83 222.25 472.58 229.5 479.08 234.5 485.58 239.25 492.83 244.5 498.58 247.5 503.83 248.75 504.08 250.67 503.67 253.33 498.33 253.08 490.75 249.25 484 244.67 476.42 238.92 467.17 230.5 461.17 221.33 455.67 210.83 450.67 200.5 446.33 190.5 445.33 180.33 445 170 445.33 160.67 446.63 153.79 449.46 153.13 450.46 153.54"/><polygon class="cls-3" points="473.67 235.33 467 320.33 481.67 342.33 499.67 252.67 473.67 235.33"/><polygon class="cls-3" points="494.58 362.5 497.58 370 498.83 380.5 497.58 392.75 493.33 404.5 490.33 410.5 485.83 413.75 489.33 409.75 491.58 404 494.33 394.25 495.08 386 494.58 374.75 491.33 359.25 494.58 362.5"/><polygon class="cls-3" points="302.08 356.75 298.58 360.31 295.33 362.81 291.96 366.94 288.67 371 292.67 362.33 296.58 358.75 302.08 356.75"/><g id="shade"><polygon class="cls-6" points="484.33 348.17 481.67 342.33 467 320.33 458.71 312.81 438 296.75 429.5 292.75 439.33 299.69 453.83 310.94 466.83 322.19 477.08 337.56 484.33 348.17"/><polygon class="cls-6" points="453.33 301.5 443 287.17 433.33 268.17 426.33 255.5 412.67 245.17 405 240.5 396.67 240.5 405.33 242.5 414.67 249.5 424.67 259.17 433.33 272.5 441 286.5 453.33 301.5"/><polygon class="cls-6" points="391.58 376 365.08 365.5 341.08 351.5 329.08 336 319.08 316 308.9 332.22 306.96 345.78 306.58 354.25 318.08 345.5 321.58 344 329.08 345.5 333.08 353.5 343.08 362 359.08 368 383.08 375 391.58 376"/></g><path class="cls-7" d="M553.29,387.11l-1.93-.12a1.19,1.19,0,0,0-1.43,1.2l0,.46c-.08.83.32,1.28,1.2,1.34,1.46.1,2.18.14,3.64.2a1.11,1.11,0,0,0,.84-.2,6,6,0,0,0,.62-.78c.7-1.09,1-1.64,1.74-2.74.4-.6.71-1,.92-1.28a2.37,2.37,0,0,1,.76-.58,3.87,3.87,0,0,1,1.59-.18c1.87,0,2.81,0,4.68,0,2.46,0,3.59,1.16,3.39,3.54-.07.73-.1,1.09-.16,1.82-.2,2.36-1.65,3.57-4.34,3.56h-1.1l.26-2.95h1.19a1.28,1.28,0,0,0,1.4-1.33l0-.52c.07-.78-.33-1.17-1.18-1.17-1.49,0-2.24,0-3.73,0a1.14,1.14,0,0,0-.85.23,8.85,8.85,0,0,0-.62.79l-1.8,2.75a7.93,7.93,0,0,1-.94,1.31,2,2,0,0,1-.92.57,4.44,4.44,0,0,1-1.4.13c-1.8-.08-2.7-.13-4.5-.25-2.5-.17-3.65-1.47-3.45-3.81l.16-1.83c.2-2.34,1.55-3.4,4.06-3.24l2.14.12Z" transform="translate(-229.66 -88)"/><path class="cls-7" d="M570.6,380.22l-.82,2.92c-7-1.33-10.52-2.08-17.53-3.92-2.42-.63-3.3-2.11-2.64-4.38.24-.85.37-1.28.61-2.13.66-2.27,2.19-3.07,4.61-2.47,7,1.75,10.52,2.46,17.53,3.73l-.82,2.92c-3.1-.57-4.65-.88-7.75-1.53-.38,1.33-.56,2-.94,3.31C566,379.34,567.5,379.65,570.6,380.22Zm-9.37-5.41c-2.82-.62-4.23-.95-7-1.67a1.18,1.18,0,0,0-1.6.93l-.22.78a1.11,1.11,0,0,0,.88,1.57c2.81.72,4.22,1.06,7,1.69C560.66,376.79,560.85,376.13,561.23,374.81Z" transform="translate(-229.66 -88)"/><path class="cls-7" d="M566,362.34c-3.71-1.77-5.56-2.68-9.27-4.6l1.45-2.64c7.67,3.91,11.5,5.67,19.17,9.07l-1.45,2.74c-1.53-.68-2.29-1-3.82-1.73-4.11-.43-6.17-.67-10.28-1.25,5,2.48,7.53,3.65,12.55,5.91l-1.45,2.73c-7.67-3.49-11.51-5.32-19.17-9.39l1.45-2.62C559.51,361.38,561.68,361.72,566,362.34Z" transform="translate(-229.66 -88)"/><path class="cls-7" d="M575.78,362.14l1.29-1.6a1.25,1.25,0,0,0-.32-2c-5.32-4.07-8-6.14-13.29-10.44l1.95-2.36c5.48,4.39,8.22,6.5,13.71,10.67,1.85,1.41,2,3,.51,4.94l-1.85,2.32Z" transform="translate(-229.66 -88)"/><path class="cls-7" d="M585.72,354.73q-2.9,2.47-5.08-.29c-3.38-4.28-5.07-6.43-8.45-10.78q-2.21-2.82.67-5.19l2.29-1.9q2.86-2.4,5.06.39c3.39,4.28,5.08,6.4,8.46,10.63,1.45,1.82,1.22,3.56-.71,5.22Zm-1-2.44,1.23-1.05a1.12,1.12,0,0,0,.19-1.75c-3.29-4.13-4.93-6.2-8.22-10.38-.5-.64-1.11-.66-1.82-.06L575,340a1.19,1.19,0,0,0-.29,1.83c3.29,4.21,4.93,6.29,8.22,10.43C583.41,352.88,584,352.9,584.73,352.29Z" transform="translate(-229.66 -88)"/><path class="cls-7" d="M591.5,332.65l-.7-1.7c-.32-.77-.88-.95-1.68-.52l-.43.23a1.27,1.27,0,0,0-.69,1.78l1.32,3.21c.15.36.32.56.53.61a7.06,7.06,0,0,0,.94.09l3.15-.07a13.23,13.23,0,0,1,1.51.06,1.71,1.71,0,0,1,.81.32,3.23,3.23,0,0,1,.78,1.28l1.7,4.12q1.35,3.26-2,5l-1.69.9c-2.19,1.18-3.78.58-4.75-1.79-.16-.39-.24-.59-.41-1l2.75-1.47.43,1.05c.32.76.88.91,1.7.47l.49-.26a1.2,1.2,0,0,0,.61-1.71L594.55,340c-.15-.36-.33-.56-.53-.6a4.88,4.88,0,0,0-.95-.09l-3.16,0a9.12,9.12,0,0,1-1.55-.07,1.51,1.51,0,0,1-.87-.48,3.54,3.54,0,0,1-.68-1.13c-.65-1.59-1-2.39-1.64-4-.91-2.22-.27-3.9,1.92-5.06l1.72-.91c2.19-1.16,3.74-.65,4.65,1.56.32.76.47,1.13.78,1.89Z" transform="translate(-229.66 -88)"/><path class="cls-7" d="M601.52,344.84l-3.75-21.14,7.19-2.31.45,2.56-4.29,1.38c.46,2.57.69,3.85,1.14,6.42l3.81-1.22.45,2.56-3.8,1.22,1.25,7,4.29-1.37.45,2.56C605.83,343.45,604.4,343.92,601.52,344.84Z" transform="translate(-229.66 -88)"/><path d="M612.79,347.15c-20.41,3-37.36,22-37.48,42.75-.12,20.4,17.43,35.14,37.48,32.2s37.46-20,37.49-40.73C650.3,361.23,633.37,344.12,612.79,347.15Zm0,46a7.19,7.19,0,0,1-8.5-7.28,10.14,10.14,0,0,1,8.5-9.73,7.28,7.28,0,0,1,8.51,7.39A10,10,0,0,1,612.79,393.17Z" transform="translate(-229.66 -88)"/><path class="cls-3" d="M612.79,376.16a10.14,10.14,0,0,0-8.5,9.73,7.19,7.19,0,0,0,8.5,7.28,10,10,0,0,0,8.51-9.62A7.28,7.28,0,0,0,612.79,376.16Zm0,16.45a6.76,6.76,0,0,1-8-6.83,9.54,9.54,0,0,1,8-9.14,6.82,6.82,0,0,1,8,6.93A9.44,9.44,0,0,1,612.79,392.61Z" transform="translate(-229.66 -88)"/><path class="cls-3" d="M612.75,377.25a8.84,8.84,0,0,0-7.42,8.48,6.28,6.28,0,0,0,7.42,6.35,8.75,8.75,0,0,0,7.42-8.4A6.34,6.34,0,0,0,612.75,377.25Zm-.09,13.17a4.83,4.83,0,0,1-5.7-4.88,6.79,6.79,0,0,1,5.7-6.52,4.86,4.86,0,0,1,5.7,4.93A6.74,6.74,0,0,1,612.66,390.42Z" transform="translate(-229.66 -88)"/><path d="M612.66,379a6.79,6.79,0,0,0-5.7,6.52,4.83,4.83,0,0,0,5.7,4.88,6.74,6.74,0,0,0,5.7-6.47A4.86,4.86,0,0,0,612.66,379Zm4.94,5.47a5.93,5.93,0,0,1-4.26,5l0,0-.1,0-.1,0-.44.07a4.34,4.34,0,0,1-3.76-1.36l0-.06h0a4.17,4.17,0,0,1-1-2.17c0-.15,0-.31,0-.46a6,6,0,0,1,4-5.66,5.92,5.92,0,0,1,1-.19,4.2,4.2,0,0,1,4.74,3.57.45.45,0,0,0,0,.08s0,.05,0,.08,0,.11,0,.18v.07c0,.05,0,.1,0,.15v.3a.45.45,0,0,1,0,.11c0,.05,0,.09,0,.14Z" transform="translate(-229.66 -88)"/><path class="cls-3" d="M607.39,378.17c-6.28-7.91-9.42-11.84-15.7-19.76a45.91,45.91,0,0,0-4.7,4.76c7.57,6.68,11.35,9.95,18.92,16.59A11.76,11.76,0,0,1,607.39,378.17Z" transform="translate(-229.66 -88)"/><path class="cls-3" d="M618.33,391.12c6.1,7.79,9.15,11.72,15.25,19.77a42.84,42.84,0,0,0,4.64-4.39c-7.37-7-11.06-10.39-18.43-17A11.19,11.19,0,0,1,618.33,391.12Z" transform="translate(-229.66 -88)"/><path class="cls-7" d="M584.22,366.8a41.63,41.63,0,0,0-6.05,13.12c10.37,1.54,15.55,2.1,25.92,3.4a11,11,0,0,1,1.56-3.22C597.08,374.79,592.79,372.2,584.22,366.8Z" transform="translate(-229.66 -88)"/><path class="cls-7" d="M641.13,403.35a38.26,38.26,0,0,0,6.2-12.55,234.4,234.4,0,0,0-25.79-5,10.58,10.58,0,0,1-1.5,3.34C628.47,394.57,632.69,397.34,641.13,403.35Z" transform="translate(-229.66 -88)"/><path class="cls-7" d="M577.86,381.17a36.93,36.93,0,0,0-.75,4.69c10.65-.05,16-.32,26.62-.65a10.71,10.71,0,0,1,.22-1.38C593.51,382.83,588.29,382.43,577.86,381.17Z" transform="translate(-229.66 -88)"/><path class="cls-7" d="M647.65,389.61a35.24,35.24,0,0,0,.8-4.61,217.43,217.43,0,0,0-26.62-1.07,11.23,11.23,0,0,1-.17,1.42A227.66,227.66,0,0,1,647.65,389.61Z" transform="translate(-229.66 -88)"/><path class="cls-3" d="M652,381.69c.1-21.55-17-39.47-39.17-36.15-21.56,3.23-39.48,22.51-39.22,44.64-.2,21.3,18.23,36.88,39.1,34C633.59,420.79,652,403.82,652,381.69ZM612.79,422.1c-20,2.94-37.6-11.8-37.48-32.2.12-20.75,17.07-39.74,37.48-42.75,20.58-3,37.51,14.08,37.49,34.22C650.25,402.13,632.75,419.17,612.79,422.1Z" transform="translate(-229.66 -88)"/><path class="cls-3" d="M626.49,375.52c1.35-7,2-10.49,3.38-17.47-2,.19-2.93.3-4.88.52v-2.42c2.74-.31,4.1-.46,6.84-.71l.73,1.35c-1.39,7.37-2.09,11.06-3.48,18.45Z" transform="translate(-229.66 -88)"/><path d="M612.79,376.64a9.52,9.52,0,0,0-8,9.14,6.76,6.76,0,0,0,8,6.83,9.41,9.41,0,0,0,8-9A6.83,6.83,0,0,0,612.79,376.64Zm0,15.43a6.28,6.28,0,0,1-7.42-6.35,8.85,8.85,0,0,1,7.42-8.48,6.34,6.34,0,0,1,7.42,6.43A8.76,8.76,0,0,1,612.75,392.07Z" transform="translate(-229.66 -88)"/></g><g id="shorts"><polygon points="451.33 421.38 469.71 427.13 469.17 430.5 470.08 437.75 471.08 445.25 475.58 450.25 479.08 455.25 481.08 462.75 484.58 475.25 487.58 481.25 491.58 487.25 494.08 507.25 493.08 526.75 490.08 538.25 486.58 550.75 485.08 560.25 479.58 570.25 474.58 579.25 470.08 585.25 465.58 594.25 461.58 600.25 458.08 608.25 456.58 614.75 453.58 620.25 449.58 622.25 447.08 623.75 442.58 628.75 438.58 635.75 434.58 642.75 427.58 653.75 421.58 656.25 419.58 652.75 415.08 646.25 409.08 640.25 397.08 631.75 381.58 626.75 369.08 622.75 358.58 619.75 345.58 620.75 336.08 621.75 328.58 627.25 326.58 622.75 323.08 614.75 322.58 605.25 323.08 591.75 325.58 582.75 328.58 573.25 322.58 568.25 329.08 550.75 322.33 553.33 303.67 556 259.83 509.5 248.33 497 241.33 471.75 243.33 459.25 252.58 444 254.08 435.5 255.83 428.5 260.33 424 263.08 420.5 264.08 416.75 265.33 411.75 269.58 406.75 273.21 402.38 276.33 396.06 279.9 392.31 283.02 390.94 285.5 391 289.17 390.67 298.67 391 308.83 391 325.33 393.33 340 395.5 361.5 399.17 371 401.83 400.17 411.5 425.17 419.33 451.33 421.38"/><polygon class="cls-3" points="253.83 502.75 249.33 493.5 245.33 480.5 243.08 472 243.33 461.25 249.33 453.5 255.58 444.5 262.83 436 271.33 431.25 282.33 426 296.08 425.75 316.58 426.5 327.08 429.5 338.83 437.25 350.08 448.75 356.08 461.75 359.83 472.5 362.58 486.5 363.08 497.75 361.08 510.25 354.58 519.75 346.33 529 339.08 536.75 334.08 543.25 328.33 548.25 322.58 552 315.08 554 303.33 555.25 302.83 557.5 317.83 556 327.33 552.75 335.08 546.75 342.08 539.5 350.08 530.25 359.08 518.25 365.33 509.5 366.83 496.5 366.08 482.25 362.83 468 357.83 455.75 350.83 443.5 341.58 433.75 328.08 424 315.58 420 301.83 418.25 287.08 419.75 275.58 424 265.58 430 257.83 436 249.08 448.25 241.83 458 240.33 469.5 241.83 480.25 245.58 491.25 248.58 501 253.58 508 253.83 502.75"/><polygon class="cls-3" points="328 623 334 619.33 345 616.67 362.67 616.67 379.67 620.67 393 626 403.67 631 414.33 638 420 645.67 421.67 649.67 422.67 655 421.33 659 418 663.33 414.33 664.33 328.67 636.33 326.67 629 328 623"/><polygon class="cls-7" points="286.67 390.17 306.83 390.67 316.5 391.17 332.67 393.5 366.33 399.5 403.83 412.33 425.5 418.83 450.83 420.5 469.71 426.74 469.71 427.13 449.33 421.75 424.58 419.75 399.08 412 364.83 400.33 330.67 394.5 315.17 392.17 302.33 391.33 285.5 391 286.67 390.17"/></g><g id="legs"><polygon class="cls-4" points="264.08 447.5 272.58 441.5 283.08 436 295.08 434 307.08 433.5 318.58 436.5 328.08 444.5 335.58 455 340.08 465.5 342.58 473.5 341.58 484.5 337.08 496.75 332.08 507.25 325.58 518.25 319.08 527.75 314.08 536.25 308.08 546.75 303.58 555.63 302.46 558.5 302.58 565 302.83 575 303.58 588.25 303.58 596.25 302.83 605.75 300.58 614 297.83 622.25 295.83 631.75 291.58 642 287.08 650 284.08 659 281.33 666.67 278 671.17 274.67 680.83 271.83 689.33 225.58 687.75 226.58 677.25 226.83 665 225.58 657.75 224.33 646.25 223.58 632.25 223.58 622.75 223.83 612.5 224.83 601.5 226.58 594.25 228.33 582 229.33 571 229.33 558.5 229.71 554.88 230.83 551.5 232.71 546.5 237.96 538.25 241.83 530.88 246.71 522.75 250.33 517.25 251.71 511.63 252.08 505.5 252.96 497.5 253.5 486.17 254.67 475.67 255 469 255.83 462.17 256.33 455.83 259.83 450.33 264.08 447.5"/><polygon class="cls-4" points="355.17 738.17 359 736.33 365.83 732.83 371.83 728.5 377.5 724 382 719.17 383.17 716.33 383.33 713 386.83 710 389.83 705 392.83 700 398.33 693.5 402.33 685.5 405.83 678 408.83 672.5 411.83 667.5 415.83 663.5 411.33 658.5 401.33 651 393.33 646.5 380.33 640.5 365.83 633 355.83 630.5 341.33 631 332.33 634.5 330.58 640.25 328.58 645.75 326.83 651.5 325.33 657.5 324.08 663.5 323.58 671.25 323.33 678.5 320.58 724.75 302.58 727.75 303.08 735.75 306.33 744 310.58 749.75 316.83 753.75 336.58 750.25 355.17 738.17"/></g><g id="shoes"><polygon points="225.83 685 233.83 682 242.67 680.67 252 681 261 683 269 685.17 272.33 686 270.33 697.75 267.83 708 265.08 717 263.83 726.75 263.83 741 264.58 762.25 264.83 776.75 267.08 786.5 268.08 794.25 270.83 798.25 269.08 805 263.08 807.25 252 807 240.67 807.33 231.33 808.33 215 808.33 203.33 806.67 196.67 802.67 194 793.67 195.33 786 198.33 779.67 203 774.33 207 769.67 215 764.67 217.08 755.25 218.08 748 219.83 739.5 223.33 729 225.83 719.17 226 708.5 226.33 693.67 225.83 685"/><polygon class="cls-6" points="263.08 807.25 257.83 801.17 252.83 793.33 248.5 786.67 242 780.5 233.17 777.33 224.83 776.83 214.33 778.83 207.17 781.83 202.83 786.25 198.58 804 196.83 803.25 194 793.67 195.17 787.17 195.33 786 198.33 779.67 207 769.67 215 764.67 217.08 755.25 219.58 745.25 223.08 734.75 227.58 726.75 232.58 721.75 238.08 719.75 243.58 720.25 247.58 724.25 251.58 729.25 257.08 732.25 260.58 726.25 262.58 722.25 265.08 717.75 269.58 720.25 272.58 722.25 274.58 723.25 272.33 730.67 270 738.33 268 747.33 266.33 758 265.67 771.33 266 783 269.33 794.67 271.33 798.33 271.33 802.67 268.67 806.33 265.33 807.67 263.08 807.25"/><polygon class="cls-6" points="304.08 707.75 298.58 707.5 289.58 708.25 284.08 711 280.83 714.25 274.33 722 272.08 726 270.83 730.5 269.33 736.5 267.83 746 244.67 794 239.33 805.33 240.83 814.17 249 826 254.5 829 263.17 830 270 827.67 277.08 821.5 284.71 812.25 288.67 802.67 301 732 308.33 726.67 304.08 707.75"/><polygon points="323.42 679.25 322.92 687.75 326.33 702.25 327.83 712.75 332.83 721.25 340.33 730.75 347.33 737.75 350.42 737.17 355.42 737.17 361.92 733.17 367.42 730.17 371.42 727.67 375.93 725.24 375.21 733.63 370.96 739.75 360.08 745.25 353.33 749.5 348.83 752.25 342.33 752.25 335.58 750.5 332.58 749.5 322.33 748.75 316.83 748.25 313.08 744.75 309.33 739.75 306.83 731.5 304.33 724 303.96 716 303.46 706.63 304.33 699.25 305.71 691.88 307.96 685.5 321.33 679 323.42 679.25"/><polygon points="278.58 736 280.33 729 283.58 724 287.83 719.5 293.58 718.5 297.83 719.25 300.33 721.5 302.08 725.75 302.58 727.75 303.08 730.5 303.58 734.75 305.58 740.75 308.08 745.5 310.58 748.25 313.83 751 317.08 752.75 320.83 753.75 323.83 755.5 324.83 759.25 322.08 761.75 318.58 763.5 311.83 765.25 306.83 769.75 301.67 771.33 299 776.67 297.67 784 294.33 792.67 288.67 802.67 283 809 275 816.33 269.33 821.33 263.67 823.33 254.33 822.33 248.33 817.67 245.33 808.67 246.33 798 277.83 754 278.58 736"/></g></svg>