<svg xmlns="http://www.w3.org/2000/svg" viewBox="0 0 591 1217.4"><defs><style>.cls-1{fill:#ffbaf5;}.cls-2{fill:#d4cdec;}.cls-3{fill:#c6c6c6;}.cls-4{fill:#322223;}.cls-5{fill:#d2a89a;}.cls-6{fill:#cc9f93;}</style></defs><title>klay</title><g id="uniform"><polyline points="368.63 301.46 384 306.33 400.5 316.33 412 322.83 386.5 348.33 359 387.33 351.5 418.33 355 470.33 381.75 563 399.33 604.33 425 636.33 432 699.33 427.5 710.5 426.5 752.17 432 765.83 462.33 820 479 876.67 503.67 912.67 483 926.67 451 932.67 334.33 961.33 312.75 966.33 278.25 973.33 264.25 977.83 248.75 981.33 231.75 983.33 216.75 983.33 193.25 985.33 173.75 985.33 153.75 985.33 127.25 985.33 103.25 981.33 99.5 968.83 99.5 949.5 103.5 922.17 108.5 904.83 110.25 899.75 111.88 898.21 113.13 895.71 114.38 892.46 116.63 886.96 118.63 875.96 120.13 867.21 120.63 859.71 123.58 837.92 114.88 762.71 95 618.67 83.67 577 89.67 482 103.67 424.67 112.88 395.33 135.58 374.75 167.38 350.71 177.13 341.96 187.63 344.71 209.67 383.33 246.33 368 297 325.33 321 308 338.33 295.33 357.5 299.83"/><polygon class="cls-1" points="357.5 299.83 362.88 299.21 368.63 301.46 348.88 322.96 321.38 357.96 302 374.33 282 396.33 261 414.33 251 423.33 240.5 434.83 231.5 446.83 223.5 456.83 219.5 466.83 219.5 471.83 202.63 471.83 202.69 466.31 197.06 456.83 192.75 450.83 185 439.83 178 431.83 172.42 422.33 169 402.83 172.5 377.83 174.5 363.33 177.7 354.85 177.5 364.83 179 384.83 197.35 422.07 212.5 452.83 229 430.33 245.5 411.83 357.5 299.83"/><polygon class="cls-1" points="421.83 333.83 417.17 325.83 413.17 323.5 412 322.83 404.85 318.79 403.06 317.78 390.81 331.4 379.44 344.65 364.38 363.21 356.38 374.96 351.13 382.21 346.38 398.21 344.88 413.96 345.63 434.21 345.63 470.71 350.88 497.21 359.63 524.96 364.88 540.96 371.13 559.21 376.88 571.21 389.5 593.17 395.83 604.5 407.07 613.98 408.5 601.83 401.5 588.83 396.83 571.83 392.83 560.5 387.83 550.83 383.35 537.17 376.83 518.5 370.83 494.83 366.17 477.5 361.83 459.83 358.5 441.17 357.5 426.17 359.17 407.5 365.17 389.83 372.5 374.83 382.5 362.83 397.83 348.17 410.5 338.5 421.83 333.83"/><polygon class="cls-1" points="83.38 576.25 83.88 578.08 91 509.33 92 493.33 97.5 445.83 107.5 419.33 113 401.83 121.22 387.77 108.33 397 100.78 405.83 95 417.67 90.33 429 85.39 442.33 83.67 463 80.33 495.67 80.88 529.08 83.38 576.25"/><polyline points="103.25 981.33 93.5 1021.33 79.5 1051.4 61 1077.33 41.5 1109.83 27.5 1142.33 15 1163.33 8.5 1190.33 6.5 1204.33 0 1217.33 223.33 1217.33 242 1198.67 250 1217.33 591 1217.33 575.5 1118.33 565 1059.33 561.5 1030.83 553.5 1001.33 539 961.33 524 937.83 507.5 915.33 503.67 913.24 103.25 981.33"/><polyline class="cls-2" points="102.88 980.08 126.5 983.83 141.5 983.83 184.5 983.83 214.5 981.96 238 981.96 263.5 976.33 283.5 970.33 435.5 934.83 468.5 927.83 479.5 925.83 492.5 918.33 503 911.7 503.67 912.67 503.67 913.24 484.16 926.24 482.66 926.93 451 932.67 381.08 950.25 282.64 973.23 274.13 975.46 261.38 978.48 248.75 981.33 231.75 983.33 216.75 983.33 193.53 985.31 127.25 985.33 103.25 981.33"/><polygon class="cls-1" points="476.29 926.42 473.19 918.42 469.67 905.33 464.33 888 456.33 861.33 448.33 827.33 438.33 783.33 434.82 770.87 427.57 754.83 427.57 776 434.33 804.67 446.33 849.33 455.67 902 459.79 920.7 459.88 929.66 476.29 926.42"/><polygon class="cls-1" points="476.69 928.01 482 948.52 489.5 979.33 498 1003.33 505.5 1033.83 512.33 1066.67 515 1102 515 1144.67 517 1201.33 514.94 1217.4 482.56 1217.4 484.83 1203.5 484.17 1138.83 481.83 1102.5 480.17 1067.83 478.17 1035.17 472.83 999.83 466.17 970.5 462.17 945.17 460.08 931.02 476.69 928.01"/><path class="cls-3" d="M770.57,746.29c-1.59-.2-2.39-.3-4-.48-1.81-.2-2.8.59-3,2.36l-.08,1c-.15,1.72.68,2.68,2.5,2.88,3,.34,4.52.53,7.53.93a2.13,2.13,0,0,0,1.75-.27,11.17,11.17,0,0,0,1.29-1.48l3.6-5.27a22,22,0,0,1,1.91-2.41,3.77,3.77,0,0,1,1.56-1,7.92,7.92,0,0,1,3.3.1c3.87.65,5.81,1,9.69,1.75,5.1,1,7.45,3.94,7,8.79-.13,1.48-.19,2.22-.32,3.7-.42,4.8-3.41,6.61-9,5.57l-2.28-.41c.21-2.42.32-3.62.53-6l2.47.46c1.77.33,2.74-.4,2.89-2.2l.1-1.06c.14-1.59-.68-2.56-2.45-2.89-3.09-.59-4.64-.87-7.73-1.4a2.17,2.17,0,0,0-1.75.21,11.24,11.24,0,0,0-1.28,1.45c-1.5,2.08-2.24,3.12-3.73,5.21a17.22,17.22,0,0,1-1.95,2.48,3.59,3.59,0,0,1-1.91,1,9.14,9.14,0,0,1-2.91,0c-3.73-.51-5.59-.74-9.31-1.15-5.19-.57-7.58-3.18-7.16-8,.13-1.52.2-2.28.33-3.8.42-4.85,3.22-7.07,8.41-6.48,1.78.2,2.66.31,4.44.53C770.89,742.66,770.78,743.87,770.57,746.29Z" transform="translate(-643 -78.67)"/><path class="cls-3" d="M806.44,737.62l-1.7,5.65c-11.94-4.91-24-9.46-36.32-13.44-5-1.61-6.83-4.67-5.48-9.33l1.28-4.37c1.35-4.65,4.53-6.21,9.54-4.51,12.28,4.16,24.37,8.86,36.32,13.89l-1.7,5.64c-6.42-2.68-9.63-4-16-6.45l-2,6.53C796.8,733.68,800,735,806.44,737.62ZM787,722.69c-5.84-2.18-8.76-3.22-14.59-5.17-1.71-.57-2.81,0-3.31,1.69-.18.63-.28.94-.46,1.57a2.45,2.45,0,0,0,1.82,3.38c5.84,1.91,8.75,2.94,14.59,5.09Z" transform="translate(-643 -78.67)"/><path class="cls-3" d="M796.86,698.63c-7.69-5.14-11.53-7.64-19.21-12.43l3-5.13q20.24,12.84,39.74,26.82c-1.2,2-1.8,2.92-3,4.88-3.17-2.24-4.75-3.35-7.92-5.54-8.53-2.91-12.79-4.29-21.32-6.82q13.19,8.54,26,17.61l-3,4.91q-19.45-13.62-39.74-26l3-5.18C783.4,694.23,787.89,695.63,796.86,698.63Z" transform="translate(-643 -78.67)"/><path class="cls-3" d="M817.1,702.84l2.65-2.62q1.82-1.79-.66-4.33-13.62-14-27.58-27.7l4-4.18Q810,678.23,824,692.8q5.78,6,1.1,10.55l-3.83,3.75Z" transform="translate(-643 -78.67)"/><path class="cls-3" d="M837.6,693.32q-6,3.31-10.51-3.67-8.76-13.49-17.58-26.91c-3-4.62-2.59-8.11,1.36-10.43,1.9-1.12,2.85-1.68,4.75-2.78,4-2.3,7.45-1.08,10.5,3.61q8.8,13.62,17.57,27.26,4.53,7.07-1.45,10.35C840.38,691.77,839.46,692.29,837.6,693.32Zm-2.05-5.68,2.53-1.4q2-1.1.4-3.51-8.51-13.25-17.09-26.42-1.56-2.4-3.78-1.12l-2.32,1.35q-2.16,1.26-.6,3.64,8.59,13.11,17.09,26.28C832.82,688.07,834.07,688.46,835.55,687.64Z" transform="translate(-643 -78.67)"/><path class="cls-3" d="M849.42,651.26c-.59-1.59-.88-2.39-1.46-4-.67-1.81-1.83-2.54-3.49-2.17l-.88.2q-2.43.54-1.43,3.25l2.76,7.51a2.85,2.85,0,0,0,1.1,1.6,15.19,15.19,0,0,0,2,.8l6.52,1.93a31,31,0,0,1,3.13,1.13,5.63,5.63,0,0,1,1.69,1.21,10.24,10.24,0,0,1,1.61,3.17l3.55,9.69q2.81,7.65-4.05,9.13c-1.4.29-2.1.44-3.49.75q-6.81,1.46-9.87-6.87c-.34-.91-.5-1.37-.84-2.28l5.68-1.24c.36,1,.54,1.48.91,2.47q1,2.66,3.52,2.11l1-.22q2.25-.48,1.27-3.14l-2.83-7.72a2.83,2.83,0,0,0-1.1-1.61,16.09,16.09,0,0,0-2-.8c-2.62-.83-3.94-1.24-6.56-2A20,20,0,0,1,843,663a4.85,4.85,0,0,1-1.82-1.54,10.92,10.92,0,0,1-1.41-2.79c-1.37-3.7-2.05-5.56-3.41-9.26q-2.87-7.75,3.94-9.29l3.55-.79q6.81-1.52,9.66,6.28L855.1,650Z" transform="translate(-643 -78.67)"/><path class="cls-3" d="M870.21,683.24q-4-23.18-7.91-46.36c6,0,8.94,0,14.9,0l.95,5.62h-8.88l2.4,14.07h7.88c.39,2.24.58,3.37,1,5.61h-7.88c1,6.18,1.58,9.26,2.63,15.43h8.89c.38,2.24.57,3.37,1,5.61C879.15,683.26,876.17,683.25,870.21,683.24Z" transform="translate(-643 -78.67)"/><path d="M893.86,695.46c-41.34-7-77.74,22.07-77.66,64.55.09,43.06,35.42,83.58,77.66,90.78,42.64,7.26,77.68-27.73,77.67-69.56C971.52,738.08,935,702.46,893.86,695.46Zm0,95.38a21.85,21.85,0,0,1-17.62-20.67c-.14-9.61,8-16.3,17.62-14.58s17.5,10.49,17.63,20.41A14.67,14.67,0,0,1,893.86,790.84Z" transform="translate(-643 -78.67)"/><path class="cls-1" d="M893.86,755.59c-9.61-1.72-17.76,5-17.62,14.58a21.85,21.85,0,0,0,17.62,20.67A14.65,14.65,0,0,0,911.49,776C911.36,766.08,903.58,757.32,893.86,755.59Zm0,34.09c-9.13-1.53-16.55-10.26-16.55-19.41s7.4-15.22,16.55-13.69,16.55,10,16.55,19.17S903,791.2,893.86,789.68Z" transform="translate(-643 -78.67)"/><path class="cls-1" d="M893.78,757.81c-8.49-1.42-15.37,4.23-15.37,12.72s6.88,16.6,15.37,18,15.37-4.42,15.37-12.92S902.25,759.23,893.78,757.81Zm-.19,27.24a14.59,14.59,0,0,1-11.81-13.84c0-6.53,5.28-10.88,11.81-9.78a14.45,14.45,0,0,1,11.81,13.72C905.4,781.68,900.12,786.14,893.59,785.05Z" transform="translate(-643 -78.67)"/><path d="M893.59,761.43c-6.53-1.1-11.81,3.25-11.81,9.78a14.59,14.59,0,0,0,11.81,13.84c6.53,1.09,11.81-3.37,11.81-9.9A14.45,14.45,0,0,0,893.59,761.43Zm10.23,14.37a8.4,8.4,0,0,1-8.83,7.78h-.07a.55.55,0,0,1-.22,0h-.19c-.32,0-.61-.08-.92-.14a12.72,12.72,0,0,1-7.8-5.25l-.11-.16,0,0a11.79,11.79,0,0,1-2-5.11c0-.32-.07-.66-.09-1a8.47,8.47,0,0,1,8.37-9.09,10.3,10.3,0,0,1,2,.21,12.73,12.73,0,0,1,9.83,10.33c0,.07,0,.12,0,.18s0,.11,0,.16,0,.25,0,.39v.14c0,.1,0,.21,0,.31v.63a.82.82,0,0,1,0,.22c0,.1,0,.19,0,.29A1.09,1.09,0,0,0,903.82,775.8Z" transform="translate(-643 -78.67)"/><path class="cls-1" d="M882.66,756.24q-16.27-25.75-32.53-51.52a58.22,58.22,0,0,0-9.72,6.8q19.65,23.47,39.2,47A14.46,14.46,0,0,1,882.66,756.24Z" transform="translate(-643 -78.67)"/><path class="cls-1" d="M905.34,790q15.66,24.39,31.59,48.6a59.06,59.06,0,0,0,9.61-7.46q-19.38-21.58-38.17-43.65A14.94,14.94,0,0,1,905.34,790Z" transform="translate(-643 -78.67)"/><path class="cls-3" d="M834.66,717.29a61.14,61.14,0,0,0-12.54,23.61c18,7.59,35.87,15.75,53.72,23.8a15.22,15.22,0,0,1,3.23-5.62Q856.9,738.16,834.66,717.29Z" transform="translate(-643 -78.67)"/><path class="cls-3" d="M952.58,825.41a66,66,0,0,0,12.83-24.85c-18.13-5.81-35.8-12.46-53.41-19.71a15.88,15.88,0,0,1-3.13,6.07C923.23,800,937.74,812.87,952.58,825.41Z" transform="translate(-643 -78.67)"/><path class="cls-3" d="M821.48,743.32a70.88,70.88,0,0,0-1.55,9.29c18.47,5,36.81,10.36,55.16,15.77a19.15,19.15,0,0,1,.45-2.71C857.58,758.09,839.64,750.41,821.48,743.32Z" transform="translate(-643 -78.67)"/><path class="cls-3" d="M966.07,798.13a70.76,70.76,0,0,0,1.67-9.49c-18.64-2.94-36.86-6.9-55.15-11.54a19.9,19.9,0,0,1-.35,2.83C930,786.7,947.81,792.86,966.07,798.13Z" transform="translate(-643 -78.67)"/><path class="cls-1" d="M975,781.93c.08-46.3-36.9-82.39-81.15-89.82-44-7.39-82,22-81.28,67.56,0,44.61,37,87.77,81,95.35C938.75,861.92,975.11,826.66,975,781.93Zm-81.14,68.86c-42.24-7.2-77.57-47.72-77.66-90.78-.08-42.48,36.32-71.57,77.66-64.55,41.18,7,77.66,42.62,77.67,85.77C971.54,823.06,936.5,858.05,893.86,850.79Z" transform="translate(-643 -78.67)"/><path class="cls-1" d="M915.56,729.68c-.49-1.56-.74-2.34-1.24-3.9a8.61,8.61,0,0,0,3.56-1.7,9.61,9.61,0,0,0,2.31-2.73l.56.08,3.55,2.38v38.57c-2.14-.27-3.21-.41-5.35-.7V729.14Z" transform="translate(-643 -78.67)"/><path class="cls-1" d="M929.21,731.47c-.5-1.55-.74-2.33-1.24-3.88a8.69,8.69,0,0,0,3.55-1.78,9.61,9.61,0,0,0,2.31-2.78l.57.06,3.55,2.29V764c-2.14-.22-3.21-.33-5.36-.57V730.84Z" transform="translate(-643 -78.67)"/><path d="M893.86,756.58c-9.13-1.53-16.55,4.54-16.55,13.69s7.4,17.88,16.55,19.41,16.55-4.77,16.55-13.93S903,758.1,893.86,756.58Zm-.08,31.95c-8.5-1.42-15.37-9.52-15.37-18s6.87-14.15,15.37-12.73,15.36,9.33,15.36,17.83S902.25,790,893.78,788.53Z" transform="translate(-643 -78.67)"/></g><g id="head"><polygon class="cls-4" points="290.33 210.67 303 208 305 192 313 177.33 322.33 167.33 329 154.67 332.33 128.67 335.67 102.67 333.67 77.33 316.33 50.67 294.33 28.67 263.67 8.67 221 0 183.67 7.33 151 16.67 125 32.67 117.67 52.67 117.67 66.67 127.67 74.67 206.33 89.33 254.33 118.67 281.67 164.67 290.33 210.67"/><polygon class="cls-5" points="103.83 116.5 111.5 82.5 125.5 55.83 139.83 44.83 156.5 40.83 179.17 39.83 200.5 43.5 223.83 54.17 257.17 85.83 278.17 111.5 282.17 126.17 287.63 122.46 294.63 120.21 301.38 121.46 307.38 129.21 310.38 140.21 310.38 161.75 304.58 172.75 295.08 179.25 296.38 216.71 303.88 249.96 318.38 272.71 333.38 286.71 357.5 299.83 325.5 333.83 278 380.83 245.5 411.83 229 430.33 212.5 452.83 197.42 435.67 189.08 422.83 180.75 406.83 179 384.83 177.5 364.83 178 339.83 179.5 316.83 180.5 303.33 168.5 310.83 155.5 312.83 138.5 302.83 131 277.33 124.5 246.33 115 217.33 106.5 197.33 101 178.83 100.69 150.15 103.83 116.5"/><polygon class="cls-4" points="200.13 280.33 192.13 302.58 188.32 309.01 181.42 314.23 175 319.08 167.19 320.25 161.91 321.05 155.88 320.08 148.88 317.83 139.88 314.58 136.13 304.08 132.4 282.08 145.5 296.08 160 298.08 171 296.83 180.25 283.33 185.5 272.33 183.5 261.58 178.33 237 177.5 228.5 170.75 213.33 165.17 199 148.08 186.62 134.67 184.83 124.17 188 120.83 192.17 115.88 203.83 116.38 217.08 118.88 225.58 121.13 234.83 122.89 241.41 118.25 227.1 115.45 218.72 112.88 206.83 113.25 201.71 115.08 196.4 117 190.83 122.33 182.67 130 178.33 144.18 178.9 153.83 182.83 158.83 187.17 163.87 191.46 169 195.83 174.25 214.08 194 261.08 199.63 273.08 200.13 280.33"/><polygon class="cls-6" points="285.38 135.83 290.63 133.08 297.38 130.83 303.38 133.33 304.63 140.08 303.13 143.33 301.63 142.58 301.88 140.58 301.63 138.08 299.63 135.83 295 135.58 291.13 137.08 289.88 139.58 286.38 139.08 285.38 137.83 285.38 135.83"/><polygon class="cls-6" points="285.38 149.08 288.38 149.08 290.63 150.83 291.38 154.83 289.88 157.58 286.88 158.58 284.13 159.83 283.13 162.33 280.38 163.33 276.88 162.08 279.13 158.83 281.38 157.58 283.38 154.58 283.38 151.08 284.13 149.08 285.38 149.08"/></g><g id="arms"><polygon class="cls-5" points="421.83 333.83 444.33 344.67 459.67 356.67 477.67 372.67 493.67 387.33 509.67 403.33 522.33 425.33 532.33 458 538.33 485.33 545 533.33 548.33 590 553 630.67 556.33 684.67 559 780.67 559 813.33 557.38 818.71 551.88 828.21 527.38 845.33 490.42 884.08 456 911.08 401 965.33 327 1031.83 319.5 1045.33 310.5 1063.33 308 1086.83 303.27 1104.96 281.13 1118.33 264 1131.83 242 1147.83 227.63 1153.08 221 1150.33 217.5 1144.33 216.13 1138.58 213.5 1136.83 204.5 1135.33 199 1135.33 196 1133.33 193.5 1128.33 191 1123.33 191 1120.33 183.5 1119.83 178 1118.83 173.5 1118.33 170.25 1113.08 168.92 1109.25 170.25 1105.42 171.92 1098.75 171.58 1095.42 169.58 1093.42 164.25 1092.08 157.58 1091.08 151.75 1089.25 151.13 1082.46 153.13 1076.21 159.63 1071.96 172.13 1061.71 181.63 1051.96 191 1046.58 193.5 1038.08 199.5 1029.58 212.5 1024.08 225 1023.08 236.5 1021.08 252.75 1010.83 265.25 997.83 280.75 974.83 310.25 949.83 331.75 930.33 359.25 903.83 367.5 882.58 376.17 868.67 381.5 859.33 393.5 833.58 408.33 811.33 421.83 793.33 432.33 776 442.33 755.33 446.33 740.67 436.33 722.67 420.33 689.33 412.33 664 409.67 640.33 407.07 613.98 408.5 601.83 401.5 588.83 392.83 560.5 387.83 550.83 376.83 518.5 370.83 494.83 366.17 477.5 361.83 459.83 358.5 441.17 357.5 426.17 359.17 407.5 365.17 389.83 372.5 374.83 382.5 362.83 397.83 348.17 410.5 338.5 421.83 333.83"/><polygon class="cls-5" points="110.33 397 95 403.33 79.5 413.33 66 423.33 54.5 434.33 48.5 450.83 45 471.83 42 517.83 42 549.83 45.33 594.67 44 631.33 42.67 652.67 42 676.83 42 696.33 44 711.83 45.5 737.83 45.5 772.33 44.5 786.83 40.5 795.33 35.5 803.83 30 815.83 25 834.67 22.33 851.33 20.33 871.33 19.25 895.33 19.25 926.83 20.75 946.33 23.75 965.83 25.75 980.33 26.75 1010.83 27.75 1031.83 29.25 1045.33 31.75 1051.83 34.75 1056.33 41.25 1065.33 46.25 1072.33 54 1082.83 58.5 1092.83 63 1102.33 67.5 1113.83 72 1125.83 76 1138.33 80.5 1144.33 87 1149.33 93.5 1149.33 112 1149.33 119 1146.83 130.5 1140.83 139.5 1137.83 147.5 1135.33 156 1131.83 163 1123.33 169.5 1119.33 177 1113.83 183.5 1105.33 186.5 1092.83 190.5 1078.83 190.5 1063.33 184 1050.83 169 1041.33 159.5 1031.83 148.5 1023.33 137 1019.33 122.5 1019.83 113 1019.83 107.5 1014.83 104.88 990.33 105.25 981.33 101.5 968.83 101.5 949.5 105.5 922.17 112.25 899.75 113.88 898.21 115.13 895.71 116.38 892.46 118.63 886.96 122.13 867.21 122.63 859.71 125.58 837.92 97 618.67 85.67 577 82.33 495.67 87.39 442.33 97 417.67 102.78 405.83 110.33 397"/><path class="cls-6" d="M804.62,1149l-10.49-8.74-5.63-6.5H778l-6.5,3-6,1.5-.75,1.5.44.75v2.13l-.88,2.37.44,2.88.67,2.37,3,1.17,5.5,1.66,2.83,3.67,4.17,2.67h5l6.5-1.17.33-1.83a24.38,24.38,0,0,0-3.5-1.5c-.5,0-4.33-1.17-4.33-1.17l-2.5-2.33v-3.5l1.83-4.17,3-1.67,4,2.84,4.17,2.16h4.16Z" transform="translate(-643 -78.67)"/><polygon class="cls-6" points="170.81 1116.91 160.25 1108.33 153.25 1101.33 151.75 1089.25 152.25 1088.58 153.92 1100.92 160.08 1106.42 165.25 1111.25 171.49 1116.41 170.81 1116.91"/><polygon class="cls-6" points="155.01 1130.61 140.88 1124.71 129.38 1117.96 121.13 1107.96 119.38 1105.71 117.88 1104.96 119.88 1107.96 125.38 1114.46 129.13 1119.21 135.38 1123.21 141.63 1126.46 148.88 1129.21 154.34 1131.42 155.01 1130.61"/><polygon class="cls-6" points="128.5 1140.83 117.88 1138.71 105.38 1137.71 96.88 1135.96 92.38 1129.96 89.13 1123.71 88.63 1116.91 89.63 1123.29 93.04 1129.38 95.96 1133.71 97.13 1135.38 101.13 1136.13 107.21 1137.29 113.71 1137.88 118.46 1138.21 125.96 1139.79 129.4 1140.53 128.5 1140.83"/><polygon class="cls-6" points="188.5 1078.83 181.5 1105.33 175 1113.83 172.05 1115.99 172.36 1116.5 176 1115.33 182.83 1106.33 190.17 1079.67 190.17 1063.17 182.59 1051.4 182.37 1051.53 188.67 1063.83 188.5 1078.83"/><polygon class="cls-6" points="191 1120.33 191 1120.53 203.17 1116.91 211.83 1110.67 217.5 1102 208.17 1112 201.17 1116.91 191 1120.33"/><polygon class="cls-6" points="216.13 1138.58 226.5 1135 232.5 1129.67 237.17 1123 229.17 1130.79 222.83 1135 215.19 1137.96 216.13 1138.58"/><polyline class="cls-6" points="187.48 1089.42 191.83 1086.67 194.17 1082.33 191 1086.71 187.72 1088.58"/></g></svg>