<svg id="uniform" xmlns="http://www.w3.org/2000/svg" viewBox="0 0 873.72 1247.25"><defs><style>.cls-1,.cls-7{fill:#ffbaf5;}.cls-2{fill:#111;}.cls-3{fill:#070707;}.cls-4{fill:#d4cdec;}.cls-5{font-size:60.9px;}.cls-5,.cls-6{fill:#c6c6c6;}.cls-5,.cls-7{font-family:BigNoodleTitling, BigNoodleTitling;}.cls-7{font-size:54.04px;}.cls-8{fill:#d2a89a;}.cls-9{fill:#ba9088;}.cls-10{fill:#b9847e;}.cls-11{fill:#a57666;}.cls-12{fill:#cc9f93;}.cls-13{fill:#322223;}.cls-14{fill:#d4a696;}</style></defs><title>steph</title><polyline points="497.21 702.46 490.69 702.13 374.66 707.28 360.78 704.59 363.97 702.47 356.84 701.34 353.37 693.28 345.06 692.1 332.37 691.48 326.77 692.38 326.88 698.63 323.25 709.42 322.25 713.42 313.92 727.75 307.92 745.75 286.92 784.08 270.25 829.42 261.75 852.25 251.63 868.38 246.75 889.25 240.25 916.58 233.58 981.92 236.75 1044.42 234.95 1081.1 245.08 1142.08 251.13 1183.88 260.37 1207.74 310.25 1221.25 401.25 1229.25 509.25 1226.25 553.41 1218.37 559.08 1204.42 566.62 1140.42 574.42 1116.08 576.31 1110.44 583.25 1069.25 587.25 1018.25 590.25 993.25 593.13 984.88 594.33 972.5 598.33 947.67 604.33 930.83 582.08 880.42 566.42 827.08 560.96 803.08 548.58 775.75 537.42 732.42 520.61 703.64 513.75 702.75 497.21 702.46"/><polyline class="cls-1" points="483.08 700.58 362.38 694.3 353.37 693.28 352.63 699 353.63 705.5 356.13 720.13 369.75 741.08 390.08 762.92 418.96 786.75 420.72 788 422.28 788.88 424.28 790.25 426.16 791 426.84 794.92 432.72 794.92 433.91 790.81 435.59 789.44 437.1 788.46 439.13 786.75 447.88 780.25 469.63 756.25 489.13 722.25 491.13 712.75 491.38 706.75 490.69 702.13 483.08 700.58"/><polygon class="cls-1" points="246.75 889.25 242.58 880.58 242.58 874.58 255.25 848.58 273.25 811.25 283.25 781.25 297.54 753.32 315.26 718.67 323.83 701.92 324.75 694.94 326.88 691.94 332.37 691.48 329.23 695.08 328.19 701.58 327.31 704.54 325.25 709.25 321 719 313.25 743.75 306.92 755.42 288.58 790.59 271.92 833.42 261.75 852.25 253.38 867.88 246.75 889.25"/><polygon class="cls-1" points="519.74 703.53 520.38 704.79 520.75 706.75 524.92 713.17 529.25 723.33 535.42 734.67 546.75 784.08 558.75 816.41 570.25 854.38 588 904.88 602.73 930.88 602.91 934.83 604.33 930.83 583.25 879.25 570.75 826.25 564.25 803.25 551.25 770.75 541.25 729.75 525.25 704.25 519.74 703.53"/><polyline class="cls-1" points="242.58 880.58 240.25 916.58 246.75 889.25 243.5 882.49"/><polygon class="cls-2" points="556.25 843.25 534.25 1000.25 518.21 1068.25 465.25 1144.25 379.25 1194.25 459.25 1156.25 520.25 1073.25 556.25 853.25 556.25 843.25"/><polygon class="cls-2" points="463.58 1096.58 418.96 1123.25 360.92 1137.92 417.63 1122.38 463.58 1096.58"/><polygon class="cls-3" points="284.13 1186.88 316.13 1209.38 325.38 1209.38 349.38 1194.25 324.13 1214.88 307.63 1213.88 284.88 1194.25 284.13 1186.88"/><polygon class="cls-1" points="576.31 1110.44 572.25 1137.25 565.25 1216.25 553.41 1218.37 559.08 1204.42 566.62 1140.42 571.75 1124.42 574.42 1116.08 576.31 1110.44"/><polygon class="cls-1" points="260.37 1207.74 246.25 1203.92 242.08 1186.75 238.42 1152.42 235.28 1105.09 234.42 1092.08 234.95 1081.1 239.13 1108.13 245.88 1151.88 251.13 1183.88 260.37 1207.74"/><polygon class="cls-1" points="241.42 1247.25 247.39 1224.08 247.39 1204.23 258.47 1207.23 255.75 1226.75 250.75 1247.25 241.42 1247.25"/><polygon class="cls-1" points="564.35 1216.41 555.01 1218.08 557.17 1233.33 556.25 1247.25 561.33 1247.25 564.35 1230.33 564.76 1219.38 564.35 1216.41"/><polygon points="311.17 1214.88 258.47 1207.23 255.75 1226.75 250.75 1247.25 556.25 1247.25 557.17 1233.33 555.01 1218.08 311.17 1214.88"/><polygon class="cls-4" points="247.39 1204.23 285.75 1216.08 317.42 1219.75 385.42 1225.74 462.75 1225.74 508.75 1221.75 542.08 1212.08 566.54 1201.66 540.75 1213.42 505.08 1223.42 456.94 1226.81 383.17 1226.17 328.06 1221.31 312.69 1219.81 283.04 1215.96 259.55 1207.74 247.39 1204.23"/><polygon class="cls-1" points="439.78 774.69 437.32 777.42 435.63 779.89 433.16 782.75 431.21 785.08 430.17 785.08 429.26 784.04 427.32 780.28 425.24 776.38 422.38 772.23 421.75 771.36 401.55 771.26 403.81 773 408.88 778.33 414.59 785.73 415.89 788.98 416.8 792.88 416.8 796.9 416.67 801.32 416.54 801.97 425.24 801.97 432.51 801.97 440.95 802.49 441.34 798.33 442.38 795.34 443.42 791.84 445.44 786.64 447.31 783.06 448.56 781.06 450.31 778.56 452.83 775.5 456.45 770.79 442.87 771.46 439.78 774.69"/><text class="cls-5" transform="translate(345.87 988.11) rotate(-85.05)">S</text><text class="cls-5" transform="matrix(0.28, -0.96, 0.96, 0.28, 347.29, 968.18)">a</text><text class="cls-5" transform="matrix(0.49, -0.87, 0.87, 0.49, 352.82, 947.93)">n</text><text class="cls-5" transform="matrix(0.66, -0.75, 0.75, 0.66, 363.43, 929.46)">J</text><text class="cls-5" transform="translate(371.81 918.88) rotate(-35.69)">O</text><text class="cls-5" transform="matrix(0.93, -0.36, 0.36, 0.93, 389.63, 905.95)">S</text><text class="cls-5" transform="translate(408.18 898.71) rotate(-9.88)">E</text><path d="M894.12,954.8a74.43,74.43,0,1,0,74.42,74.43A74.43,74.43,0,0,0,894.12,954.8Zm0,91.4A16.89,16.89,0,1,1,911,1029.31,16.87,16.87,0,0,1,894.12,1046.2Z" transform="translate(-460.75 -48.75)"/><path class="cls-1" d="M894.12,1012.42A16.89,16.89,0,1,0,911,1029.31,16.87,16.87,0,0,0,894.12,1012.42Zm0,32.67A15.86,15.86,0,1,1,910,1029.23,15.86,15.86,0,0,1,894.12,1045.09Z" transform="translate(-460.75 -48.75)"/><path class="cls-1" d="M894,1014.57a14.73,14.73,0,1,0,14.72,14.72A14.72,14.72,0,0,0,894,1014.57Zm-.19,26.12a11.32,11.32,0,1,1,11.32-11.31A11.3,11.3,0,0,1,893.85,1040.69Z" transform="translate(-460.75 -48.75)"/><path d="M893.85,1018.06a11.32,11.32,0,1,0,11.32,11.32A11.31,11.31,0,0,0,893.85,1018.06Zm9.81,12.18a9.86,9.86,0,0,1-8.46,8.82.1.1,0,0,0-.07,0,.75.75,0,0,1-.21,0h-.18c-.3,0-.59,0-.89,0a10,10,0,0,1-7.47-3.76s-.07-.08-.1-.13l0,0a9.46,9.46,0,0,1-1.88-4.57c0-.3-.07-.62-.09-.94a10,10,0,0,1,8-10.08,10.55,10.55,0,0,1,1.88-.12,9.88,9.88,0,0,1,9.42,8.37.74.74,0,0,0,0,.17s0,.1,0,.15,0,.23,0,.37v.13c0,.1,0,.2,0,.3v.6a.75.75,0,0,1,0,.21c0,.1,0,.19,0,.29A.92.92,0,0,0,903.66,1030.24Z" transform="translate(-460.75 -48.75)"/><path class="cls-1" d="M883.38,1014.88,852.21,971a72.71,72.71,0,0,0-9.32,8.12l37.57,38.44A18.23,18.23,0,0,1,883.38,1014.88Z" transform="translate(-460.75 -48.75)"/><path class="cls-1" d="M905.12,1043.61l30.27,42.59a70.24,70.24,0,0,0,9.21-8L908,1040.76A17.77,17.77,0,0,1,905.12,1043.61Z" transform="translate(-460.75 -48.75)"/><path class="cls-6" d="M837.38,985.59a71,71,0,0,0-12,24.5l51.47,14.05a18.56,18.56,0,0,1,3.1-5.93Z" transform="translate(-460.75 -48.75)"/><path class="cls-6" d="M950.39,1072.28a71.22,71.22,0,0,0,12.3-24.41l-51.2-14a18.12,18.12,0,0,1-3,6.26Z" transform="translate(-460.75 -48.75)"/><path class="cls-6" d="M824.75,1012.5a71.94,71.94,0,0,0-1.48,9.12l52.86,6.18a19.21,19.21,0,0,1,.43-2.68Z" transform="translate(-460.75 -48.75)"/><path class="cls-6" d="M963.32,1045.52a70.37,70.37,0,0,0,1.6-9.14l-52.86-6.17a19.44,19.44,0,0,1-.33,2.76Z" transform="translate(-460.75 -48.75)"/><path class="cls-1" d="M971.87,1029.88c0-44.51-33.2-78.29-77.77-78.29-38.64,0-78.38,29-77.88,77.79,0,47.86,40.57,78.37,77.63,78.37C935.34,1107,971.89,1075.91,971.87,1029.88Zm-77.75,73.77a74.43,74.43,0,1,1,74.42-74.42A74.42,74.42,0,0,1,894.12,1103.65Z" transform="translate(-460.75 -48.75)"/><text class="cls-7" transform="translate(444.71 965.82)">30</text><path d="M894.12,1013.37A15.86,15.86,0,1,0,910,1029.23,15.85,15.85,0,0,0,894.12,1013.37ZM894,1044a14.73,14.73,0,1,1,14.73-14.73A14.72,14.72,0,0,1,894,1044Z" transform="translate(-460.75 -48.75)"/><polygon class="cls-8" points="326.88 691.94 289.25 646.58 264.58 624.58 242.58 609.25 217.92 543.25 193.92 505.25 157.92 443.92 143.92 375.25 115.92 315.92 93.92 253.92 85.92 225.25 84.58 197.92 101.92 185.92 107.25 171.25 120.58 157.25 125.25 147.25 137.25 132.58 139.92 119.25 141.25 101.92 136.75 100.88 130.25 102.13 125.75 109.38 118.5 117.63 110 127.13 103 131.63 89.5 130.88 82.5 125.63 22.25 134.13 25.25 163.38 27.25 185.63 24.25 196.38 24.5 212.13 32.25 241.63 39 269.13 44 300.38 51.5 329.38 56.25 371.08 73.58 428.75 91.92 483.08 104.92 521.75 126.58 586.75 133.58 624.75 140 658 165 701.5 182 739 191 766 222 810 231.5 848.5 242.58 874.58 273.25 811.25 283.25 781.25 323.83 701.92 324.75 694.94 326.88 691.94"/><polyline class="cls-8" points="22.25 134.13 13 95 3 66.5 0 44.5 6.5 39 11.13 43.5 9.5 27 8.5 15 13.5 12.5 22.25 14 27.5 26 32.5 43 39.5 60.5 46.5 78.5 48.5 83.5 48.5 58.5 52.5 30 54.5 10 59 1 64 0 70.17 1.5 74.5 8.5 75.42 41.75 73.75 73.42 72.75 87.42 82.42 80.75 90.42 77.75 101.42 79.42 115.08 87.75 123.75 94.42 137.58 113.08 132.92 116.75 122.58 119.42 110.08 112.08 100.42 107.08 93.08 107.08 81.42 112.42 81.08 120.75 82.5 125.63"/><polygon class="cls-9" points="11.13 43.5 17.29 55.46 26.29 72.79 36 97 25.71 73.13 16.63 55.46 11.13 43.5"/><path class="cls-8" d="M578.65,138.67" transform="translate(-460.75 -48.75)"/><polygon class="cls-10" points="122.44 120.06 132.69 117.31 137.58 113.81 137.58 113.08 132.92 116.75 122.58 119.42 118.85 117.23 122.44 120.06"/><polygon class="cls-10" points="127.23 99.12 125.31 106.56 129.94 112.19 136.09 114.26 137.58 113.08 127.23 99.12"/><path class="cls-8" d="M1331.8,148.94h-6.66l-6.67,4.33-9.33,8.67-7,7.33-5,2.67,9.33-11.67,7.17-17,4.83-15.33,6.33-12.34v-5.33l-4-4.33-5,.66-5.66,3.67-7.34,10.67-8,14-10.33,15-5.33,7.83-1.34-1.5V98.94l1.67-18-4.67-3.67-3.73-1-5.62,2.25-3.88,7.38L1260,93l-2.75,17.5L1255,130.23,1253.26,152l-1,13.25-2.5,1.5-8.75-9.25-9-8.5-5.25-2.5-8.5,2.75-13,6.5L1195,162.48l-3.33,5.15-1.14-2.93-4.33-2.67-4.33,1.34-4.67,6.33-1.33,16.67,10.33,22,5.67,20,6.33,23.33L1215,272.62l-.58,22.75-5,31-10,34-14,32-18,30-10,31-15,40-3,41-9,22.83-23,25.17-19,33.5-12,36.5-10.92,32-39.58,26.5-24.5,22.5-15,20.5,16,25.5,10,41,13,32.5,19,76,20.45,50,2.55-22.72,9.33-38,5.33-30.67,8-24.66,16.67-21.34,10-20.66,8.67-27.34,22.66-34,22.67-40,4.67-25.33,12.66-50,8.5-38.83,13.34-36.67,11-41.67,11.66-39.33,11-59.67,7.67-45.33,10.33-44,8-27,4-26.67,1.09-23.28,1.25-15.25,6-13.13,10.66-22h0l12-17.42,23.67-27.34,6.33-8.66V152.6Zm-98.39,48.31-7.87,1.78-8,1.67-8.33-1.33-8-10.34-3.18-6.54,5.19-3.3,6.83-4.67,5.5-4.17,3.17.5,4.17,6.17,8.66,7,1.84,7,.75,6.08Z" transform="translate(-460.75 -48.75)"/><polygon class="cls-11" points="728 123.33 726.37 128.65 726.2 129.66 726.43 130.34 728.91 135.38 729.04 135.63 733.96 136.29 735.13 136.04 737.32 134.21 734.5 136 729 135.33 726.33 129.67 728 123.33"/><polygon class="cls-11" points="731.49 117.93 733.71 123.04 732.38 128.21 729.63 130.21 726.88 130.82 726.33 129.67 728 123.33 731.49 117.93"/><polygon class="cls-12" points="242.58 609.25 246.75 641.25 244.67 684.25 245.56 639.69 242.58 609.25"/><polygon class="cls-12" points="157.92 443.92 141.63 450.13 119.63 453.38 94.38 452.38 120.63 452.38 142.06 449.31 157.92 443.92"/><polygon class="cls-12" points="604.33 634.75 620.25 651.25 639.25 658.28 677.25 661.75 638.81 657.19 625.31 652.44 619.81 649.69 604.33 634.75"/><polygon class="cls-12" points="678.25 484.75 688.56 490.44 708.03 487.31 737.81 475.44 708.03 486.69 688.94 489.69 678.25 484.75"/><polyline class="cls-12" points="360.42 640.62 364.73 669.73 364.25 687.75 359 699.63 360.42 719.25 376.25 738.08 393.75 759.92 406.75 770.58 416.13 777.75 425.69 783.15 428.4 784.44 430.17 785.08 431.21 785.08 435.09 782.47 449.88 770 467.58 748.42 476.88 729.5 484 713.38 483.08 700.58 483.08 662.92 482.42 640.62 483.08 628.25"/><polygon class="cls-13" points="492.08 566.25 504.75 557.58 511.42 559.58 513.75 576.08 517.75 570.42 517.75 550.42 516.42 517.08 503.42 488.08 489.08 469.75 467.08 453.42 444.75 441.08 414.08 439.08 392.08 441.42 370.25 449.92 356.25 463.25 342.92 475.92 329.58 495.92 321.58 514.58 321.58 547.25 323.83 569.25 492.08 566.25"/><polygon class="cls-14" points="422.47 680.25 405.88 680.25 393.63 678 380.38 670 366.63 652 356.13 632.75 351.13 615.75 344.88 614.25 341.38 618 335.13 617 329.67 609.92 325.17 595.25 323.83 577.42 326.17 559.58 332.83 557.58 340.83 562.42 345.5 566.25 343.17 528.08 348.33 508.75 359.67 488.25 373.29 478.25 395.13 471.75 411.63 469.75 418.88 469.75 422.47 680.25"/><polygon class="cls-14" points="415.11 680.25 433.88 680.25 444.38 676.5 456.13 669.5 470.96 652 481.46 632.75 486.46 615.75 492.71 614.25 496.21 618 502.46 617 507.92 609.92 512.42 595.25 513.75 577.42 511.42 559.58 504.75 557.58 496.75 562.42 492.08 566.25 494.42 528.08 489.25 508.75 477.92 488.25 464.29 478.25 442.46 471.75 425.96 469.75 418.71 469.75 415.11 680.25"/><polygon class="cls-13" points="392.75 640.08 400.17 655 407.17 661.83 427.33 662 442.17 659.33 446.42 654.08 450.75 643.42 454.42 637.08 456.19 636.31 457.31 638.69 456.81 647.94 455.06 656.19 453.69 667.69 450.42 672.9 444.38 676.5 433.88 680.25 415.11 680.25 405.88 680.25 396.78 678.77 395.13 676.46 391.21 672.79 388.44 652.56 388.5 643.5 389.5 640.67 391.03 639.47 392.75 640.08"/></svg>