<?xml version="1.0" encoding="utf-8"?>
<!-- Generator: Adobe Illustrator 22.0.1, SVG Export Plug-In . SVG Version: 6.00 Build 0)  -->
<svg version="1.1" id="Layer_1" xmlns="http://www.w3.org/2000/svg" xmlns:xlink="http://www.w3.org/1999/xlink" x="0px" y="0px"
	 viewBox="0 0 1024 1024" style="enable-background:new 0 0 1024 1024;" xml:space="preserve">
<g>
	<g>
		<path d="M657,175.5H367c-105.9,0-192.5,86.6-192.5,192.5v289.9c0,105.9,86.6,192.5,192.5,192.5H657
			c105.9,0,192.5-86.6,192.5-192.5V368C849.4,262.1,762.8,175.5,657,175.5z M790.2,660.1c0,72.1-59,131.1-131.1,131.1H364.9
			c-72.1,0-131.1-59-131.1-131.1V365.8c0-72.1,59-131.1,131.1-131.1h294.2c72.1,0,131.1,59,131.1,131.1V660.1z"/>
	</g>
	<path d="M511,337.7c95.3-0.6,176.4,80.2,176.3,175.5c-0.1,95.4-81.5,176-176.7,175.1c-93.9-0.9-172.6-79.2-174-173.3
		C335.2,419.8,415.4,338.3,511,337.7z M509.9,400.1c-61.3,1.1-111.4,52.5-110.9,113.8c0.5,61.3,51.4,112,112.7,112.1
		c63,0.1,115-53.1,113.2-116.2C623.1,448.5,571.3,399,509.9,400.1z"/>
	<circle cx="704.9" cy="333.6" r="40"/>
</g>
</svg>
