<?xml version="1.0" encoding="utf-8"?>
<!-- Generator: Adobe Illustrator 22.0.1, SVG Export Plug-In . SVG Version: 6.00 Build 0)  -->
<svg version="1.1" id="Layer_1" xmlns="http://www.w3.org/2000/svg" xmlns:xlink="http://www.w3.org/1999/xlink" x="0px" y="0px"
	 viewBox="0 0 1024 1024" style="enable-background:new 0 0 1024 1024;" xml:space="preserve">
<g>
	<path d="M174.9,748.4C236.4,730,296.4,712,356.4,694c-0.5-5.4-1-10.7-1.4-16.1c-54.1-15-100.1-39.3-120.5-98.7
		c14.8-2.2,26.8-4,47.1-7c-58.6-32.4-99.4-71.6-99.9-139.2c17.4,3,32.3,5.6,54.7,9.5c-52.9-58.4-72.4-117-36.2-190.4
		c81.1,89.2,176.7,141.6,296.6,150.1c0.9-9.5,2.4-16.9,2.2-24.4c-1.8-60.9,22.7-107.6,76.6-136.7c54.1-29.1,108.4-24.9,155.7,12.7
		c38.6,30.7,66.7-9.6,108.3-7.9c-15.1,22.2-27.6,40.7-42.5,62.8c19.3-2.9,35.6-5.3,51.9-7.7c-71.5,43.9-56,120.1-71.8,184.6
		c-62,253.8-331.1,385.8-569.5,280.2C195.3,760.2,183.6,753,174.9,748.4z"/>
</g>
</svg>
